<?xml version="1.0" encoding="UTF-8"?>
<!DOCTYPE svg
PUBLIC "-//W3C//DTD SVG 1.1//EN"
       "http://www.w3.org/Graphics/SVG/1.1/DTD/svg11.dtd">
<svg viewBox="166 170 836 573" width="670px" height="403px" xmlns="http://www.w3.org/2000/svg" version="1.1">
   <line x1="562" y1="235" x2="572" y2="235" style="stroke:#333;stroke-width:1;"/>
   <line x1="719" y1="217" x2="729" y2="217" style="stroke:#333;stroke-width:1;"/>
   <line x1="572" y1="235" x2="719" y2="217" style="stroke:#333;stroke-width:1;"/>
   <line x1="569.5" y1="235" x2="565.96446609407" y2="238.53553390593" style="stroke:#333;stroke-width:2;"/>
   <line x1="569.5" y1="235" x2="565.96446609407" y2="231.46446609407" style="stroke:#333;stroke-width:2;"/>
   <line x1="724" y1="217" x2="720.46446609407" y2="220.53553390593" style="stroke:#333;stroke-width:2;"/>
   <line x1="724" y1="217" x2="720.46446609407" y2="213.46446609407" style="stroke:#333;stroke-width:2;"/>
   <line x1="562" y1="255" x2="572" y2="255" style="stroke:#c00;stroke-width:1;"/>
   <line x1="729" y1="366" x2="739" y2="366" style="stroke:#c00;stroke-width:1;"/>
   <line x1="572" y1="255" x2="729" y2="366" style="stroke:#c00;stroke-width:1;"/>
   <line x1="569.5" y1="255" x2="565.96446609407" y2="258.53553390593" style="stroke:#c00;stroke-width:2;"/>
   <line x1="569.5" y1="255" x2="565.96446609407" y2="251.46446609407" style="stroke:#c00;stroke-width:2;"/>
   <line x1="734" y1="366" x2="730.46446609407" y2="369.53553390593" style="stroke:#c00;stroke-width:2;"/>
   <line x1="734" y1="366" x2="730.46446609407" y2="362.46446609407" style="stroke:#c00;stroke-width:2;"/>
   <line x1="294" y1="420" x2="304" y2="420" style="stroke:#c00;stroke-width:1;"/>
   <line x1="454" y1="468" x2="464" y2="468" style="stroke:#c00;stroke-width:1;"/>
   <line x1="304" y1="420" x2="454" y2="468" style="stroke:#c00;stroke-width:1;"/>
   <line x1="301.5" y1="420" x2="297.96446609407" y2="423.53553390593" style="stroke:#c00;stroke-width:2;"/>
   <line x1="301.5" y1="420" x2="297.96446609407" y2="416.46446609407" style="stroke:#c00;stroke-width:2;"/>
   <line x1="459" y1="468" x2="455.46446609407" y2="471.53553390593" style="stroke:#c00;stroke-width:2;"/>
   <line x1="459" y1="468" x2="455.46446609407" y2="464.46446609407" style="stroke:#c00;stroke-width:2;"/>
   <line x1="294" y1="400" x2="304" y2="400" style="stroke:#0b0;stroke-width:1;"/>
   <line x1="455" y1="215" x2="465" y2="215" style="stroke:#0b0;stroke-width:1;"/>
   <line x1="304" y1="400" x2="455" y2="215" style="stroke:#0b0;stroke-width:1;"/>
   <line x1="301.5" y1="400" x2="297.96446609407" y2="403.53553390593" style="stroke:#0b0;stroke-width:2;"/>
   <line x1="301.5" y1="400" x2="297.96446609407" y2="396.46446609407" style="stroke:#0b0;stroke-width:2;"/>
   <line x1="460" y1="215" x2="456.46446609407" y2="218.53553390593" style="stroke:#0b0;stroke-width:2;"/>
   <line x1="460" y1="215" x2="456.46446609407" y2="211.46446609407" style="stroke:#0b0;stroke-width:2;"/>
   <rect width="77" height="20" x="739" y="336" style="fill:#007;stroke:black;"/>
   <text width="77" height="20" x="744" y="350" style="fill:#fff;" font-family="Arial" font-size="16px"> agency</text>
   <rect width="77" height="20" x="739" y="356" style="fill:#aea;stroke:black;"/>
   <text width="77" height="20" x="744" y="370" style="fill:black;" font-family="Arial" font-size="16px">AgencyId</text>
   <rect width="77" height="20" x="739" y="376" style="fill:none;stroke:black;"/>
   <text width="77" height="20" x="744" y="390" style="fill:black;" font-family="Arial" font-size="16px">Name</text>
   <rect width="77" height="20" x="739" y="396" style="fill:none;stroke:black;"/>
   <text width="77" height="20" x="744" y="410" style="fill:black;" font-family="Arial" font-size="16px">Location</text>
   <rect width="77" height="20" x="739" y="416" style="fill:none;stroke:black;"/>
   <text width="77" height="20" x="744" y="430" style="fill:black;" font-family="Arial" font-size="16px">Website</text>
   <rect width="92" height="20" x="729" y="187" style="fill:#007;stroke:black;"/>
   <text width="92" height="20" x="734" y="201" style="fill:#fff;" font-family="Arial" font-size="16px"> company</text>
   <rect width="92" height="20" x="729" y="207" style="fill:#aea;stroke:black;"/>
   <text width="92" height="20" x="734" y="221" style="fill:black;" font-family="Arial" font-size="16px">CompanyId</text>
   <rect width="92" height="20" x="729" y="227" style="fill:none;stroke:black;"/>
   <text width="92" height="20" x="734" y="241" style="fill:black;" font-family="Arial" font-size="16px">Name</text>
   <rect width="92" height="20" x="729" y="247" style="fill:none;stroke:black;"/>
   <text width="92" height="20" x="734" y="261" style="fill:black;" font-family="Arial" font-size="16px">Website</text>
   <rect width="97" height="20" x="465" y="185" style="fill:#007;stroke:black;"/>
   <text width="97" height="20" x="470" y="199" style="fill:#fff;" font-family="Arial" font-size="16px"> job</text>
   <rect width="97" height="20" x="465" y="205" style="fill:#aea;stroke:black;"/>
   <text width="97" height="20" x="470" y="219" style="fill:black;" font-family="Arial" font-size="16px">JobId</text>
   <rect width="97" height="20" x="465" y="225" style="fill:none;stroke:black;"/>
   <text width="97" height="20" x="470" y="239" style="fill:black;" font-family="Arial" font-size="16px">CompanyId</text>
   <rect width="97" height="20" x="465" y="245" style="fill:none;stroke:black;"/>
   <text width="97" height="20" x="470" y="259" style="fill:black;" font-family="Arial" font-size="16px">AgencyId</text>
   <rect width="97" height="20" x="465" y="265" style="fill:none;stroke:black;"/>
   <text width="97" height="20" x="470" y="279" style="fill:black;" font-family="Arial" font-size="16px">Title</text>
   <rect width="97" height="20" x="465" y="285" style="fill:none;stroke:black;"/>
   <text width="97" height="20" x="470" y="299" style="fill:black;" font-family="Arial" font-size="16px">Url</text>
   <rect width="97" height="20" x="465" y="305" style="fill:none;stroke:black;"/>
   <text width="97" height="20" x="470" y="319" style="fill:black;" font-family="Arial" font-size="16px">Description</text>
   <rect width="97" height="20" x="465" y="325" style="fill:none;stroke:black;"/>
   <text width="97" height="20" x="470" y="339" style="fill:black;" font-family="Arial" font-size="16px">PublishYear</text>
   <rect width="97" height="20" x="465" y="345" style="fill:none;stroke:black;"/>
   <text width="97" height="20" x="470" y="359" style="fill:black;" font-family="Arial" font-size="16px">Active</text>
   <rect width="113" height="20" x="181" y="370" style="fill:#007;stroke:black;"/>
   <text width="113" height="20" x="186" y="384" style="fill:#fff;" font-family="Arial" font-size="16px"> job_technology</text>
   <rect width="113" height="20" x="181" y="390" style="fill:#aea;stroke:black;"/>
   <text width="113" height="20" x="186" y="404" style="fill:black;" font-family="Arial" font-size="16px">JobId</text>
   <rect width="113" height="20" x="181" y="410" style="fill:#aea;stroke:black;"/>
   <text width="113" height="20" x="186" y="424" style="fill:black;" font-family="Arial" font-size="16px">TechnologyId</text>
   <rect width="106" height="20" x="464" y="438" style="fill:#007;stroke:black;"/>
   <text width="106" height="20" x="469" y="452" style="fill:#fff;" font-family="Arial" font-size="16px"> technology</text>
   <rect width="106" height="20" x="464" y="458" style="fill:#aea;stroke:black;"/>
   <text width="106" height="20" x="469" y="472" style="fill:black;" font-family="Arial" font-size="16px">TechnologyId</text>
   <rect width="106" height="20" x="464" y="478" style="fill:none;stroke:black;"/>
   <text width="106" height="20" x="469" y="492" style="fill:black;" font-family="Arial" font-size="16px">Name</text>
   <rect width="106" height="20" x="464" y="498" style="fill:none;stroke:black;"/>
   <text width="106" height="20" x="469" y="512" style="fill:black;" font-family="Arial" font-size="16px">Description</text>
   <rect width="106" height="20" x="464" y="518" style="fill:none;stroke:black;"/>
   <text width="106" height="20" x="469" y="532" style="fill:black;" font-family="Arial" font-size="16px">Icon</text>
   <rect width="106" height="20" x="464" y="538" style="fill:none;stroke:black;"/>
   <text width="106" height="20" x="469" y="552" style="fill:black;" font-family="Arial" font-size="16px">Url</text>
</svg>
